<svg xmlns="http://www.w3.org/2000/svg" viewBox="0 0 768.1 353.8"><path d="M140.4 89.8c-1.1 1.8-11-.8-19.5-2.2.8-.7 1.6-1.3 2.7-1.4 2.3-.4 4.5 1.8 6.7 1.9 1.4.1 3-1.7 4.1-1.6 2.3.3 3.6 1.7 6 2.6v.7m30 8.4c-1.6 3-5.8-1.7-9-4.2-2.9-2.2-5.9-2.8-9.2-4.1 3.5-.9 4.1-3.1 7.4-5.3 2.2.1 4.7.9 6.9.3.3.5.6 1.1.9 1.6 2.4 4 4.9 7 3 11.7M263 263.9l-.6.2.1.1c-2.5 2-5.1 3.7-6.7 4.5-1.6.7-1.4.6-3.1 1.8.6-.9 4.1-6.7 4.5-7.5 3.6-7.4 5.3-17.2 5.5-22.2.1-1 .2-1.9.1-2.8-2-16.9 5.4-37.3 6.5-55.7 1.1-17.3-4.7-41.3 12.8-52.1 1.8-1.1 7.7.9 13.3 3-1.7-9.8-4.4-19.5-8-28.8-3.7 3.3-7.2 6.9-10.8 8.7-3.1 1.6-15 11.5-17.4 6.9-.7-1.4-2-2.4-3.5-2.9-4.7-1.4 7.4-9.2 9.1-10 2.8-1.3 13.3-7.2 18.6-11.7-10.9-22.6-27.6-41.9-48.3-55.8l-.6.6c-.3-.7-.7-1.3-1.1-1.8l-3.3-2.1c-2.5-.5-5.3.9-7.3 3.3-1.8-3.3-6.9-6.6-9.4-2.5-2.1-1.7-3.8-1.3-4.7 1.3-.7-.5-1.8-.9-2.8-1.3-1.3-.5-2.8-.4-4 .3-5.8 3-19.5.2-24.6.8-1.2.1-2.3-1.3-4-.9-1 .2-2.2 3.6-3.7 4.3-3.1 1.7-9-.6-5.7 6-5.6 3.9 4 7.8 8 8.2.2.9.5 1.7 1 2.3h-1a24.79 24.79 0 0 0-13.9 2.6c-.9 1.2-1.6 2.4-2.2 3.8-1.4.5-3 .3-4.5 0-5.3-3.6-12.5-6.9-14.1-1.4-4-5-11.2-8.7-17.8-8.5-2.8.4-1.5 3.4-1.2 5.4-7.4-5.1-18.4-7.1-23.5-.4-2 2.6-2.1 4.1-2.4 8-.4 3.7-1.2 12.1 1.6 14.6 1.5 1.3 2.6 3.3 5.4 3.9 5.3 1.1 10.7 7 16.7 5.2.7-.2 1.3-.6 1.9-1 6.7 1.9 14.8 2.9 20.1 4.2 8.1 2 15.3-.3 21.7 6.7 1 1.1 1.7 1.9 2.3 2.7-1 .2-.9 1.1-2.8 1.2-.5 0-.7 1.3-1.5 1.3-1.3 0-2.3-2.3-3.3-2.2-2.2.1-3-1.6-5.1 1.5-2.9-3.9-9-7.7-11.3-1.1-6-6.7-24.9 1-22.2 10.5-3.7-.3-8.2-1.6-11.5.2-3.1 1.9-2.9 5-.4 9.8 1.9 3.7 8.4 6.5 12.1 6.9 7.3.7 13.7-3.4 20.4 1.2 2.6 1.8 2.8 5.3 6.4 6.3 5.6 1.6 4.2-2.7 7.5-3.5 2.1-.5 4.2-.2 6.3.3 1 .3 6.5 1.7 6.5 1.7 2.6.6 5.1.8 7.6-.2 4.3-1.6 9.3-5.9 11.5-10.9 1.6-.6 2.9-.7 6.6-.1 4 .7 8.6 2 12.4 3.5 4.7 1.8 16.9 4.8 19.9 8.1 4.1 4.6 4.8 17.2 4.8 22.9 0 9.3.4 20.2-.4 29.4-.8 4.8-1.8 12.8-2.7 21.8-6.1 2.3-12.1 5.1-17.6 8.7-4 2.6-7.8 5.4-11.3 8.8-2.4 2.3-4.5 4.9-6.1 7.8-.8 1.6-1.8 3.2-2.1 5-.2 1.2-.8 1.6-2.1 1.4-3.6-.6-7.3-.5-10.6 1.4-1.8 1-3.1 2.5-4.1 4.5-2.3 4.5-3.8 9.4-6.7 13.6-.8 1.1-1.6 2-2.5 2.7-.8-1.4-2.2-2.3-3.9-2.3a4.48 4.48 0 1 0 0 9c1.8 0 3.3-1 4.1-2.6.2-.4.3-.8.3-1.2 0-.2.1-.4.1-.7v-.3c1.9-.9 3.5-2.4 4.9-4.1 2.4-2.9 3.5-6.4 5-9.7 2.7-6 7.4-8.2 13.6-6.7.7.2.9.5.9 1.2-.9 9.5-.3 19-1.5 28.4-.7 5.3-1.1 7.8-5.2 14-6.8 10.1-13.8 15.1-20.8 16.4v-.1l-.4.2c-18.7 0-36.7-3.4-53.3-9.6-57.5-21.8-98.2-77-98.2-141.8C5.3 73 73 5.3 156.5 5.3s151.2 67.8 151.2 151.2c0 32.7-10.4 63-28.1 87.8-5 7-10.5 13.5-16.6 19.6M236.5 71.7c1.6.1 3.2 0 4.8-.4.1 0 .1-.1.2-.2.2.1.3.2.5.2 0 0 .1 0 .1.1-1.4 1.1-2.6 2.4-3.7 4-1.1-1-1.6-2.3-1.9-3.7m7.9 22.8c-.6-.2-1.2-.6-1.6-1.1-1.3-1.6-2.9-2.8-4.8-3.6-2.3-1-4.6-1.7-6.8-2.2 2.3-5.7 9.4-10.3 16.1-14.3 1 .4 2 .7 2.9 1 4.6 1.5 9.5 0 13.6 1.2 2.3.7 3.6 2.2 4.7 3.6.5 1.7 1.2 3.4 2 5.2 4.1 8.6 1 14.7-9.8 16.2-6.6 1-10.2-3.9-16.3-6m-2.6 185c.1.1.2.1.4.2-.1 0-.2-.1-.4-.2M189.3 93.2c-.2 5.6-7.5 6-11 2.2-2.6-2.8-.3-13.3.4-16 .1-.4.2-.8.4-1.1 2.9 5.4 10.4 10.2 10.2 14.9m15.7-6.5c2.6 1.1-5.7 2.1-7.6 3.1-.6.3-2 1.3-3.4 2.4-.9-6.4-8.4-12.9-12.8-17.5 2.6-.6 5.6-.4 9.4.5.7.2 1.4.4 2.1.7 6.6 4.6 9.7 9.7 12.3 10.8m15.4-15.2c2-.5 3.9-1.7 5.4-3.5 2.1 1 4.2 2 6.3 2.7.1 2.3.1 4.6-.2 7.1-2.3 1.1-6.8-2.5-11.5-6.3m-14.3-1.4c1.5.9 2.9 1.8 4.3 2.4.4-.8 1.7-1.7 2.5-2.4 5.5 4.6 12.2 11.4 11.7 13.8-.2 1-.6 1.9-1.1 2.5-2.3-.3-4.7-.5-7.2-.8-2-.2-3.5-.5-4.9-.6-.7-.1-1.3-.3-1.8-.8-3.1-2.8-6.3-5.1-9.1-6.6.1 0 .3-.1.4-.1 3.6-1 5.9-4.2 5.2-7.4m27.7 42.8c-7.2 3.5-15.4-6.8-21.7-7.6-7.9-1.1-16.6 5.7-25.3 6-7.1.3-11.6.3-5.1-4.8 1.1-.9 3.3-.8 4.8-2 1.3-1 1.6-2 2.4-2.7.1-.1 2.4-3.1 3.8-5 1.5-.7 3.2-1.4 4-.7 3.3 2.8 5.4 4.7 9.8 5.7 2.3.5 4.3.8 7 1.7 6.3 2.1 6.4-.2 11.3-.5 1.1-.1 2.2-.1 3.3-.1 1.5 0 3 .5 4.2 1.4 3.7 2.6 7.2 5.7 1.5 8.6m79.2 43.6C313 70.1 242.9 0 156.5 0S0 70 0 156.5c0 67 42.1 124.2 101.3 146.5 17.1 6.5 35.7 10 55.1 10 .6-.2 6.1.3 14-5.5 6.3-4.7 13-14.8 15-19.4 1-2.3 1.9-6.1 2.6-9.2 2.4 2.6 5.2 4.9 6.4 8.3.1.2.1.4.1.5-2 .4-3.6 2.2-3.6 4.4a4.48 4.48 0 1 0 9 0c0-1.8-1-3.3-2.5-4-.4-.2-.8-.3-1.3-.4-.1-1.5-.6-3-1.2-4.5-1.3-3.1-3.3-5.6-5.3-8.2-1.7-2.2-2.4-4.6-1.9-7.5.7-4.2.3-8.4 1-12.6.6-3.7 1.8-7.2 3.9-10.4 2.3-3.6 4.7-7 7.9-9.8 1.7-1.6 3.5-3.1 5.5-4.4.7-.5.9-.4 1.2.4 1.1 3.1.8 6.1-.3 9.1-.8 2.3-2.2 4.3-3 6.6-1.5 4-2.5 8-1.9 12.2l.3 1.5c-.4.3-.8.6-1.1 1-.6.8-1 1.8-1 2.8a4.48 4.48 0 1 0 9 0 4.48 4.48 0 0 0-4.5-4.5h-.6c-.1-1.1 0-2.3.2-3.5.5-3.1 1.6-6 2.9-8.8 1.5-3.7 3.4-7.2 4.3-11.1.6-2.5.4-5-.7-7.3-.6-1.2-.1-1.8.8-2.3 2.8-1.5 5.6-3 8.6-4.3.3.5 0 .8-.1 1.2-2.6 6.6-4.6 13.4-4.6 20.6 0 4.4.7 8.8 2.4 12.9 1.1 2.4 2.7 5.1 3.2 5.7 3.1 4.6 6.4 9.1 9.3 13.8-.5 2.4-1.8 4.4-3.5 6.2-2.6 2.7-4.6 5.7-5.8 9.4-.7 2-.9 4-.8 5.9l-.6.3c-.1.1-.2.1-.3.2-1.9 1.3-2.5 3.8-1.3 5.9s3.9 2.9 6.1 1.7c2.1-1.2 2.9-3.9 1.7-6.1-.7-1.3-2-2-3.3-2.2.3-1.8.9-3.4 1.8-5 2-3.6 4.7-6.4 7.1-9.7l1.6-2.2c4.4 7.9 8.3 16 11 24.7.6 1.9 1 3.8 1.5 5.7.2.6.1 1.3-.3 1.9-1.5 2.4-3.8 3.6-6.4 4.3-3.1.9-6 2.2-8.5 4.3-1.5 1.2-2.5 2.5-3.2 4h-1c-2.3.2-4 2.1-4 4.4a4.48 4.48 0 1 0 9 0c0-1.6-.8-3-2.1-3.8.9-1.1 2.2-2.1 3.6-2.9 3-1.7 6.4-2.6 9.6-3.9 1.2-.5 2.5-.9 3.6-1.7.9-.7 1-.2 1.1.6.4 3.2.5 6.4.3 9.6-.4 5.9-2.1 11.2-5.6 16-.5.7-1.1 1.4-1.6 2-.8-.7-1.8-1.1-3-1.1a4.48 4.48 0 1 0 0 9 4.48 4.48 0 0 0 4.5-4.5c0-.6-.1-1.2-.3-1.7 2.1-1.6 3.9-3.7 5.3-6 1.9-3.2 3.2-6.6 4.1-10.3 1.4-5.8 1.4-11.7 1.2-17.6-.1-2.3-.3-4.5-.7-6.8-.1-.4-.1-.9-.2-1.6-2.2-10.5-3.6-13.5-3.6-13.5-3-6.8-2.7-6.2-1.8-8.5.9-2.2 2.2-3.3 3.8-4.7 2.5-2.1 4.4-3.2 6.8-4.5 1.6-.9 5.6-2.6 7.3-3.5.9-.5 2.3-1.2 4-2.5.5-.4.8-.8 1.1-1.1 5.9-5.9 11.3-12.3 16.1-19.2 17.5-26 28.3-57.4 28.3-91.3m86-130.1h-12.3a2.22 2.22 0 0 0-2.2 2.2v48.3c0 1.2 1 2.3 2.3 2.3h11.5c7.6 0 14.1-2.6 19.3-7.7 4.7-4.7 7.1-10.9 7.1-18.6s-2.4-14-7.1-18.7c-3.4-3.5-9.5-7.6-18.6-7.8zm-.6 43.3h-4.3V35.8h4.2c10.1 0 16.9 6.8 16.9 16.9 0 10.2-6.7 17-16.8 17zm37.5 9.5h26a5.34 5.34 0 0 0 5.3-5.3v-4.1h-21.8V57.5h16.3V48h-16.3V35.7h21.8v-9.5h-25.7c-3.1 0-5.5 2.5-5.5 5.5l-.1 47.5zM488 57.5h16.3V48H488V35.7h21.7v-9.5H484c-3.1 0-5.5 2.5-5.5 5.5v47.4h26a5.34 5.34 0 0 0 5.3-5.3v-4.1H488V57.5zM530.5 74V62.9h8.8c5 0 9.4-1.8 13-5.3s5.4-7.8 5.4-12.9c0-5-1.8-9.4-5.4-13-3.5-3.5-7.9-5.3-13-5.3H521v52.8h4.3c2.9-.1 5.2-2.4 5.2-5.2zm0-38.2h8.8c4.8 0 8.8 4.1 8.8 8.9s-4 8.8-8.8 8.8h-8.8V35.8zM436.7 134H453v-9.5h-16.3v-12.3h21.8v-9.5h-25.8c-3.1 0-5.5 2.5-5.5 5.5v47.4h26a5.34 5.34 0 0 0 5.3-5.3v-4.1h-21.8V134zm-42.6-31.1h-3.2c-3.5 0-6.3 2.8-6.3 6.3v46.5h31.3v-9.5h-21.8v-43.3zm142.3 22v-12.6h6.8c3 0 5.7.9 7.2 2.3 1.6 1.6 2.4 3.6 2.4 5.7 0 4.6-3.5 8.3-7.8 8.3h-4.7l12.9 27.1h11.7l-11.3-19.2.6-.4c3-1.9 3.3-2.2 5.1-4.8 2.2-3.1 3.3-6.4 3.3-9.9V120c0-5.7-1.8-8.5-5-11.8-3.5-3.4-8.3-5.3-13.7-5.3h-10c-1.9 0-3.6.7-5 2.1-1.3 1.3-2 3.1-2 5v45.8h9.5v-30.9zm82.3 30.9v-53.1h-9.6v24.2c0 1.2-.7 2.2-1.7 2.7-1.1.5-2.3.2-3.1-.6l-27.7-26.4v53.1h9.5v-24.1c0-1.2.7-2.2 1.8-2.7.4-.2.8-.2 1.2-.2.7 0 1.5.3 2 .8l27.6 26.3zm22.7-4.4v-48.5h-9.5v52.8h5.3c2.3-.1 4.2-2 4.2-4.3zm93.6-24.8v3.8c0 2.9 2.3 5.2 5.2 5.2h10.7l-.4 1c-2.8 6-8.9 9.9-15.5 9.9-4.7 0-8.8-1.7-12.1-5s-5-7.4-5-12.1 1.7-8.8 5-12.1c3.3-3.4 7.4-5.1 12.1-5.1 2.9 0 5.6.7 8 2s5.4.8 7.3-1.1l3.1-3.1c-3.2-3-9.4-7.4-18.5-7.4h-.5v-.1c-7.2.1-13.3 2.8-18.4 7.9-5.2 5.3-7.9 11.6-7.9 19s2.6 13.8 7.9 18.9c5.2 5.2 11.5 7.8 18.9 7.8 7.3 0 13.7-2.6 18.9-7.8 5.7-5.6 8.3-12.9 7.7-21.6l-26.5-.1zm-52.6 2.4l-27.7-26.4v53.1h9.5v-24.1c0-1.2.7-2.2 1.8-2.7.4-.2.8-.2 1.2-.2.7 0 1.5.3 2 .8l27.7 26.4v-53.1h-9.6V127c0 1.2-.7 2.2-1.7 2.7-1.1.4-2.3.2-3.2-.7zm-185.2 9.2l6 13.5c1.1 2.4 3.4 3.9 6 3.9h6l-23.7-52.9-23.6 52.9h10.3l7-15.7c0-.1 0-.1.1-.2l5.6-12.7.8-1.7 5.5 12.9zm-8.7 3.6c.2.2.4.4.7.4h6.3l-2.4-5.5-1.4-3.2-3.3 7.6c-.1.2 0 .4.1.7zM680 211.4l-.3-.1-.1-.3c-.1-.2 0-.4.1-.6 1.4-2.5 3.1-6.7 3.1-10.2 0-5.4-2-10.1-5.9-14.1-4.1-4.1-9-6.2-14.7-6.2h-14a6.7 6.7 0 0 0-6.7 6.7V255h27.7c6.4 0 11.9-2.3 16.4-6.9 4.5-4.5 6.8-10.1 6.8-16.5s-2.3-11.9-6.8-16.5c-1.3-1.3-3.8-2.8-5.6-3.7zm-24.5-13.2c0-2.6 2.1-4.7 4.7-4.7h2c3.9 0 7.1 3.3 7.1 7.3s-3.1 7.2-7.3 7.7l-5.7.4h-.3l-.3-.2c-.2-.1-.2-.3-.2-.6v-9.9zm12.9 43.2h-12.9v-12.7c0-4 3.2-7.2 7.1-7.2h.1c1.9 0 4.1 0 6.6.1 5.4.4 9.6 5 9.5 10.3-.2 5.2-4.8 9.5-10.4 9.5zm-212-24.4l-39.7-37.7v75.9h14v-34.3c0-1.6.9-2.9 2.3-3.6.5-.2 1-.3 1.5-.3 1 0 1.9.4 2.6 1.1l39.5 37.7v-75.9h-14.1v34.5c0 1.5-.9 2.9-2.3 3.5-1.1.5-2.7.2-3.8-.9zm-57.8 31.8V180h-14v75.1h7.7c3.5-.1 6.3-2.9 6.3-6.3zM515.3 180h-17a3.33 3.33 0 0 0-3.3 3.3v68.2c0 1.9 1.6 3.5 3.5 3.5h16.2c10.9 0 20.1-3.7 27.5-11 6.7-6.6 10-15.5 10-26.5 0-10.9-3.4-19.9-10-26.6-5.1-4.8-13.8-10.7-26.9-10.9zm-.6 61.1h-5.8v-47.2h5.7c14.1 0 23.6 9.5 23.6 23.6-.1 14.1-9.5 23.6-23.5 23.6zM715.6 255l9.8-22.2c0-.1.1-.2.1-.3l8.8-19.8 7.6 17.6 8.5 19.1c1.5 3.4 5 5.7 8.7 5.7h9l-33.9-75.7-33.8 75.7h15.2v-.1zm13.3-21.3c-.1.4-.1.9.2 1.2.3.4.8.7 1.3.7h10.3l-6.2-14.5-5.6 12.6zM574 255l9.8-22.2c0-.1.1-.2.1-.3l8.8-19.8 7.6 17.6 8.5 19.1c1.5 3.4 5 5.7 8.7 5.7h9l-33.8-75.7-33.8 75.7 15.1-.1zm13.3-21.3c-.1.4-.1.9.2 1.2.3.4.8.7 1.3.7h10.3l-6.2-14.5-5.6 12.6z" fill="#fff"/></svg>